<svg width="1388" height="575" version="1.1" xmlns="http://www.w3.org/2000/svg" desc="Created with imagetracer.js version 1.2.6" ><path fill="rgb(0,0,0)" stroke="rgb(0,0,0)" stroke-width="1" opacity="0" d="M 0 0 L 1388 0 L 1388 575 L 0 575 L 0 0 Z M 688 112 L 687 113 L 667 114 L 662 116 L 647 117 L 643 119 L 638 119 L 634 121 L 625 122 L 622 124 L 618 124 L 616 126 L 608 127 L 606 129 L 603 129 L 596 133 L 590 134 L 563 147 L 537 165 Q 534 164 535 167 L 530 170 L 527 174 L 524 176 Q 525 178 523 177 L 509 192 Q 510 194 507 193 L 504 199 Q 505 201 502 200 L 489 226 L 483 252 L 483 274 L 487 294 L 498 318 L 505 328 Q 504 330 507 329 L 510 334 L 512 337 Q 523 351 539 361 Q 541 360 540 363 L 546 366 Q 548 365 547 368 L 561 376 Q 564 375 563 378 L 566 378 L 589 390 L 605 396 L 618 399 L 621 401 L 637 404 L 641 406 L 647 406 L 667 410 L 668 411 L 668 458 L 745 458 L 745 410 L 774 406 L 778 404 L 795 401 L 798 399 L 806 415 Q 805 418 808 417 L 814 432 L 828 457 L 829 458 L 915 458 L 915 456 L 905 438 L 866 374 L 865 368 L 872 365 L 885 354 L 888 352 Q 900 341 910 327 Q 909 324 912 325 L 924 304 L 927 292 L 929 289 L 930 279 L 932 273 L 932 253 L 930 247 L 929 236 L 919 212 L 909 197 Q 910 194 907 195 Q 906 189 901 187 L 897 182 L 895 180 L 891 175 L 868 157 Q 865 158 866 155 L 837 139 L 820 133 L 818 131 L 815 131 L 804 126 L 794 124 L 791 122 L 773 119 L 769 117 L 754 116 L 748 114 L 729 113 L 728 112 L 688 112 Z M 353 200 L 352 201 L 345 201 L 335 203 L 320 208 Q 306 214 296 223 Q 279 238 270 262 L 263 289 L 262 304 L 261 305 L 261 320 L 260 321 L 261 362 L 262 363 L 262 371 L 266 392 Q 272 416 286 433 Q 299 448 319 457 L 338 463 L 349 465 L 360 465 L 361 466 L 387 465 L 407 461 Q 425 456 438 445 Q 456 430 465 407 L 473 377 L 474 361 L 475 360 L 475 341 L 476 340 L 475 306 L 474 305 L 474 297 L 470 275 L 464 257 Q 458 242 449 232 Q 434 213 409 205 L 384 200 L 353 200 Z M 56 204 L 56 461 L 126 461 L 126 358 L 127 357 L 143 357 L 194 461 L 269 461 L 200 330 L 260 205 L 187 204 L 147 295 L 143 302 L 127 302 L 126 302 L 126 204 L 56 204 Z M 952 204 L 952 461 L 1121 461 L 1121 406 L 1021 406 L 1021 357 L 1106 357 L 1106 302 L 1021 302 L 1021 259 L 1119 259 L 1119 205 L 1119 204 L 952 204 Z M 1207 204 L 1205 206 L 1205 209 L 1125 460 L 1126 461 L 1195 461 L 1205 422 L 1206 420 L 1276 420 L 1277 422 L 1286 460 L 1288 461 L 1357 461 L 1276 206 L 1276 204 L 1207 204 Z " /><path fill="rgb(0,0,0)" stroke="rgb(0,0,0)" stroke-width="1" opacity="0" d="M 728.5 172 L 775.5 173 L 776.5 174 L 791.5 175 L 803.5 178 L 808.5 178 L 812.5 180 L 825.5 182 L 839.5 187 L 858.5 196 L 861.5 199 L 864 199 Q 862.9 201.7 865.5 201 L 877 209 L 878.5 212 Q 881.1 211.3 880 214 L 882 214 L 882 215.5 L 885 217 L 888 223 Q 890.7 221.9 890 224.5 L 898 238.5 L 903 252.5 L 903 257.5 L 905 264.5 L 905 281.5 L 900 303.5 L 888 326 Q 885.3 324.9 886 327.5 L 882 333 L 877 336.5 Q 877.8 338.8 875.5 338 L 873 339 Q 874.1 341.7 871.5 341 L 864 346 Q 865.3 349 861.5 348 L 854.5 353 L 850.5 354 L 839.5 348 L 836.5 348 L 829 344.5 L 848.5 339 L 869 327 Q 867.9 324.3 870.5 325 L 878 317.5 L 879 314 Q 881.7 315.1 881 312.5 L 886 304.5 L 891 288.5 L 892 265.5 L 891 264.5 L 891 256.5 L 886 242.5 Q 879.8 230.2 869.5 222 L 850.5 211 L 843.5 210 L 832.5 206 L 822.5 206 L 821.5 205 L 668 205 L 667.5 365 L 655.5 360 L 651.5 360 L 635.5 353 L 610 338 Q 611.1 335.3 608.5 336 L 598 328 L 595.5 324 L 594 324 L 594 322 L 592 322 L 592 320 Q 589.3 321.1 590 318.5 L 584 311.5 L 575 294.5 L 574 286.5 L 572 282.5 L 572 263.5 L 574 259.5 L 575 252.5 L 585 233 Q 587.7 234.1 587 231.5 L 590 227 L 592 227 L 592 225 Q 594.7 226.1 594 223.5 L 606.5 212 L 610 211 Q 608.9 208.3 611.5 209 L 620 204 Q 618.9 201.3 621.5 202 L 639.5 192 L 666.5 182 L 678.5 180 L 690.5 176 L 706.5 175 L 712.5 173 L 727.5 173 L 728.5 172 Z " /><path fill="rgb(0,0,0)" stroke="rgb(0,0,0)" stroke-width="1" opacity="0" d="M 364.5 255 Q 386.5 254.5 395 267.5 L 402 282.5 L 405 298.5 L 405 311.5 L 406 312.5 L 406 353.5 L 405 354.5 L 404 373.5 L 401 386.5 Q 397.4 397.4 389.5 404 L 376.5 410 L 359.5 410 Q 349.8 407.7 344 401.5 L 335 386.5 L 332 374.5 L 331 356.5 L 330 355.5 L 330 309.5 L 331 308.5 L 332 291.5 L 336 276.5 Q 339.9 266.9 347.5 261 L 352.5 258 L 364.5 255 Z " /><path fill="rgb(0,0,0)" stroke="rgb(0,0,0)" stroke-width="1" opacity="0" d="M 746 260 L 796.5 260 L 803.5 263 L 809 268.5 L 811 271.5 L 813 280.5 L 811 289.5 L 808 295 L 806 295 Q 807.1 297.7 804.5 297 L 795.5 302 L 745 302 L 745 292.5 L 746 291.5 L 746 260 Z " /><path fill="rgb(0,0,0)" stroke="rgb(0,0,0)" stroke-width="1" opacity="0" d="M 1240.5 282 L 1242 283.5 L 1263 368 L 1218 367.5 L 1240.5 282 Z " /><path fill="rgb(0,0,0)" stroke="rgb(0,0,0)" stroke-width="1" opacity="0" d="M 745 359 L 767.5 359 L 773 361 Q 771.9 363.7 774.5 363 L 778 368 Q 780.7 366.9 780 369.5 L 782 372.5 L 775.5 374 L 745 375 L 745 359 Z " /><path fill="rgb(183,185,188)" stroke="rgb(183,185,188)" stroke-width="1" opacity="0.9686274509803922" d="M 687.5 112 L 727.5 112 L 742.5 115 L 747.5 114 L 753.5 116 L 768.5 117 L 772.5 119 L 790.5 122 L 792.5 124 L 796.5 124 L 799.5 126 L 803.5 126 L 814.5 131 L 817.5 131 L 823.5 135 Q 825 132.5 826.5 136 Q 832 135.5 834 138.5 L 833.5 140 L 836.5 139 L 838 140.5 L 834.5 144 L 814 156 Q 815.1 158.7 812.5 158 L 804 163 Q 805.1 165.7 802.5 165 L 787.5 175 L 783 175 Q 784.1 172.3 781.5 173 L 779.5 173 L 776 174 Q 777.1 171.3 774.5 172 L 771.5 173 L 728.5 172 L 727.5 173 L 711.5 173 L 706.5 175 L 690.5 176 L 686.5 178 L 666.5 182 L 639.5 192 L 624.5 201 L 620 202 Q 621.1 204.7 618.5 204 L 610 209 Q 611.1 211.7 608.5 211 L 594 223.5 L 590 228.5 L 587 233 Q 584.3 231.9 585 234.5 L 574 255.5 Q 574.7 261.2 572 263.5 L 572 282.5 L 574 286.5 L 575 294.5 L 579 301.5 L 578.5 303 Q 580.8 302.3 580 304.5 L 583 308.5 L 582.5 310 L 584 310.5 L 566 321 Q 567.1 323.7 564.5 323 L 552 330 Q 553.1 332.7 550.5 332 L 526 348 L 525.5 350 L 514 338.5 L 514 337 L 512 337 Q 513.1 334.3 510.5 335 L 510.5 333 L 507 330.5 L 505 327.5 L 494 309.5 L 494.5 308 Q 492.3 308.8 493 306.5 L 487 293.5 L 487 289.5 L 484 281.5 L 483 259.5 L 483 257.5 L 484 243.5 L 489 225.5 L 502 200 Q 504.7 201.1 504 198.5 L 507 193 Q 509.7 194.1 509 191.5 L 522.5 177 Q 524.8 177.8 524 175.5 L 527 174 L 529.5 170 L 535 167 Q 533.9 164.3 536.5 165 L 562.5 147 L 589.5 134 L 595.5 133 L 602.5 129 L 605.5 129 L 607.5 127 L 615.5 126 L 617.5 124 L 621.5 124 L 624.5 122 L 633.5 121 L 637.5 119 L 642.5 119 L 646.5 117 L 661.5 116 L 666.5 114 L 686.5 113 L 687.5 112 Z " /><path fill="rgb(183,185,188)" stroke="rgb(183,185,188)" stroke-width="1" opacity="0.9686274509803922" d="M 854.5 149 L 861 152.5 L 859.5 153 L 854.5 150 L 854.5 149 Z " /><path fill="rgb(183,185,188)" stroke="rgb(183,185,188)" stroke-width="1" opacity="0.9686274509803922" d="M 862.5 154 L 866 155.5 L 864.5 156 L 862.5 154 Z " /><path fill="rgb(183,185,188)" stroke="rgb(183,185,188)" stroke-width="1" opacity="0.9686274509803922" d="M 867.5 157 L 868.5 159 L 867.5 157 Z " /><path fill="rgb(183,185,188)" stroke="rgb(183,185,188)" stroke-width="1" opacity="0.9686274509803922" d="M 872.5 160 L 874.5 163 L 872.5 160 Z " /><path fill="rgb(183,185,188)" stroke="rgb(183,185,188)" stroke-width="1" opacity="0.9686274509803922" d="M 877.5 164 L 878.5 166 L 877.5 164 Z " /><path fill="rgb(183,185,188)" stroke="rgb(183,185,188)" stroke-width="1" opacity="0.9686274509803922" d="M 880.5 167 L 887 172.5 L 881.5 168 L 880.5 167 Z " /><path fill="rgb(183,185,188)" stroke="rgb(183,185,188)" stroke-width="1" opacity="0.9686274509803922" d="M 792.5 175 L 796 175.5 L 792.5 176 L 792.5 175 Z " /><path fill="rgb(183,185,188)" stroke="rgb(183,185,188)" stroke-width="1" opacity="0.9686274509803922" d="M 803.5 177 L 807 177.5 L 803.5 178 L 803.5 177 Z " /><path fill="rgb(183,185,188)" stroke="rgb(183,185,188)" stroke-width="1" opacity="0.9686274509803922" d="M 812.5 179 L 815 179.5 L 812.5 180 L 812.5 179 Z " /><path fill="rgb(183,185,188)" stroke="rgb(183,185,188)" stroke-width="1" opacity="0.9686274509803922" d="M 817.5 180 L 820 180.5 L 817.5 181 L 817.5 180 Z " /><path fill="rgb(183,185,188)" stroke="rgb(183,185,188)" stroke-width="1" opacity="0.9686274509803922" d="M 895.5 180 L 896.5 182 L 895.5 180 Z " /><path fill="rgb(183,185,188)" stroke="rgb(183,185,188)" stroke-width="1" opacity="0.9686274509803922" d="M 901.5 187 L 905.5 192 L 901.5 187 Z " /><path fill="rgb(183,185,188)" stroke="rgb(183,185,188)" stroke-width="1" opacity="0.9686274509803922" d="M 859.5 196 L 863 198.5 L 861.5 199 L 859.5 196 Z " /><path fill="rgb(183,185,188)" stroke="rgb(183,185,188)" stroke-width="1" opacity="0.9686274509803922" d="M 864.5 200 L 868 201.5 L 866.5 202 L 864.5 200 Z " /><path fill="rgb(183,185,188)" stroke="rgb(183,185,188)" stroke-width="1" opacity="0.9686274509803922" d="M 911.5 200 L 912.5 202 L 911.5 200 Z " /><path fill="rgb(183,185,188)" stroke="rgb(183,185,188)" stroke-width="1" opacity="0.9686274509803922" d="M 869.5 203 L 874 206.5 L 872.5 206 L 869.5 203 Z " /><path fill="rgb(183,185,188)" stroke="rgb(183,185,188)" stroke-width="1" opacity="0.9686274509803922" d="M 914.5 205 L 915.5 207 L 914.5 205 Z " /><path fill="rgb(183,185,188)" stroke="rgb(183,185,188)" stroke-width="1" opacity="0.9686274509803922" d="M 877.5 210 L 878.5 212 L 877.5 210 Z " /><path fill="rgb(183,185,188)" stroke="rgb(183,185,188)" stroke-width="1" opacity="0.9686274509803922" d="M 882.5 215 L 883.5 217 L 882.5 215 Z " /><path fill="rgb(183,185,188)" stroke="rgb(183,185,188)" stroke-width="1" opacity="0.9686274509803922" d="M 885.5 217 L 887 219.5 L 885 218.5 L 885.5 217 Z " /><path fill="rgb(183,185,188)" stroke="rgb(183,185,188)" stroke-width="1" opacity="0.9686274509803922" d="M 894.5 231 L 896 233.5 L 895 233.5 L 894.5 231 Z " /><path fill="rgb(183,185,188)" stroke="rgb(183,185,188)" stroke-width="1" opacity="0.9686274509803922" d="M 896.5 235 L 898 237.5 L 896 236.5 L 896.5 235 Z " /><path fill="rgb(183,185,188)" stroke="rgb(183,185,188)" stroke-width="1" opacity="0.9686274509803922" d="M 928.5 235 L 929 237.5 L 928 237.5 L 928.5 235 Z " /><path fill="rgb(183,185,188)" stroke="rgb(183,185,188)" stroke-width="1" opacity="0.9686274509803922" d="M 929.5 240 L 930 242.5 L 929 242.5 L 929.5 240 Z " /><path fill="rgb(183,185,188)" stroke="rgb(183,185,188)" stroke-width="1" opacity="0.9686274509803922" d="M 931.5 252 L 932 272.5 L 931 272.5 L 931.5 252 Z " /><path fill="rgb(183,185,188)" stroke="rgb(183,185,188)" stroke-width="1" opacity="0.9686274509803922" d="M 903.5 254 L 904 257.5 L 903 257.5 L 903.5 254 Z " /><path fill="rgb(183,185,188)" stroke="rgb(183,185,188)" stroke-width="1" opacity="0.9686274509803922" d="M 745.5 260 L 746 264.5 L 745 264.5 L 745.5 260 Z " /><path fill="rgb(183,185,188)" stroke="rgb(183,185,188)" stroke-width="1" opacity="0.9686274509803922" d="M 805.5 264 L 806.5 266 L 805.5 264 Z " /><path fill="rgb(183,185,188)" stroke="rgb(183,185,188)" stroke-width="1" opacity="0.9686274509803922" d="M 929.5 281 L 930 284.5 L 929 284.5 L 929.5 281 Z " /><path fill="rgb(183,185,188)" stroke="rgb(183,185,188)" stroke-width="1" opacity="0.9686274509803922" d="M 745.5 283 L 746 291.5 L 745 291.5 L 745.5 283 Z " /><path fill="rgb(183,185,188)" stroke="rgb(183,185,188)" stroke-width="1" opacity="0.9686274509803922" d="M 903.5 288 L 904 290.5 L 903 290.5 L 903.5 288 Z " /><path fill="rgb(183,185,188)" stroke="rgb(183,185,188)" stroke-width="1" opacity="0.9686274509803922" d="M 901.5 296 L 902 298.5 L 901 298.5 L 901.5 296 Z " /><path fill="rgb(183,185,188)" stroke="rgb(183,185,188)" stroke-width="1" opacity="0.9686274509803922" d="M 921.5 306 L 922 307.5 L 920 308.5 L 921.5 306 Z " /><path fill="rgb(183,185,188)" stroke="rgb(183,185,188)" stroke-width="1" opacity="0.9686274509803922" d="M 584.5 312 L 587.5 316 L 584.5 312 Z " /><path fill="rgb(183,185,188)" stroke="rgb(183,185,188)" stroke-width="1" opacity="0.9686274509803922" d="M 588.5 317 L 589.5 319 L 588.5 317 Z " /><path fill="rgb(183,185,188)" stroke="rgb(183,185,188)" stroke-width="1" opacity="0.9686274509803922" d="M 890.5 322 L 889.5 324 L 890.5 322 Z " /><path fill="rgb(183,185,188)" stroke="rgb(183,185,188)" stroke-width="1" opacity="0.9686274509803922" d="M 595.5 324 L 597.5 327 L 595.5 324 Z " /><path fill="rgb(183,185,188)" stroke="rgb(183,185,188)" stroke-width="1" opacity="0.9686274509803922" d="M 599.5 328 L 602.5 332 L 599.5 328 Z " /><path fill="rgb(183,185,188)" stroke="rgb(183,185,188)" stroke-width="1" opacity="0.9686274509803922" d="M 908.5 328 L 907 330.5 L 904.5 334 L 906 331.5 L 908.5 328 Z " /><path fill="rgb(183,185,188)" stroke="rgb(183,185,188)" stroke-width="1" opacity="0.9686274509803922" d="M 884.5 329 L 882.5 332 L 884.5 329 Z " /><path fill="rgb(183,185,188)" stroke="rgb(183,185,188)" stroke-width="1" opacity="0.9686274509803922" d="M 880.5 333 L 877.5 337 L 880.5 333 Z " /><path fill="rgb(183,185,188)" stroke="rgb(183,185,188)" stroke-width="1" opacity="0.9686274509803922" d="M 606.5 334 L 610 336.5 L 608.5 337 L 606.5 334 Z " /><path fill="rgb(183,185,188)" stroke="rgb(183,185,188)" stroke-width="1" opacity="0.9686274509803922" d="M 611.5 338 L 615 340.5 L 613.5 340 L 611.5 338 Z " /><path fill="rgb(183,185,188)" stroke="rgb(183,185,188)" stroke-width="1" opacity="0.9686274509803922" d="M 900.5 338 L 896.5 343 L 900.5 338 Z " /><path fill="rgb(183,185,188)" stroke="rgb(183,185,188)" stroke-width="1" opacity="0.9686274509803922" d="M 616.5 341 L 621 344.5 L 619.5 344 L 616.5 341 Z " /><path fill="rgb(183,185,188)" stroke="rgb(183,185,188)" stroke-width="1" opacity="0.9686274509803922" d="M 871.5 341 L 869.5 344 L 867.5 345 L 868.5 343 L 871.5 341 Z " /><path fill="rgb(183,185,188)" stroke="rgb(183,185,188)" stroke-width="1" opacity="0.9686274509803922" d="M 894.5 344 L 891.5 348 L 894.5 344 Z " /><path fill="rgb(183,185,188)" stroke="rgb(183,185,188)" stroke-width="1" opacity="0.9686274509803922" d="M 622.5 345 L 628 348.5 L 626.5 349 L 622.5 345 Z " /><path fill="rgb(183,185,188)" stroke="rgb(183,185,188)" stroke-width="1" opacity="0.9686274509803922" d="M 859.5 349 L 858.5 351 L 859.5 349 Z " /><path fill="rgb(183,185,188)" stroke="rgb(183,185,188)" stroke-width="1" opacity="0.9686274509803922" d="M 889.5 349 L 887.5 352 L 889.5 349 Z " /><path fill="rgb(183,185,188)" stroke="rgb(183,185,188)" stroke-width="1" opacity="0.9686274509803922" d="M 529.5 353 L 530.5 355 L 529.5 353 Z " /><path fill="rgb(183,185,188)" stroke="rgb(183,185,188)" stroke-width="1" opacity="0.9686274509803922" d="M 881.5 356 L 879.5 359 L 881.5 356 Z " /><path fill="rgb(183,185,188)" stroke="rgb(183,185,188)" stroke-width="1" opacity="0.9686274509803922" d="M 540.5 362 L 544 364.5 L 541.5 363 L 540.5 362 Z " /><path fill="rgb(183,185,188)" stroke="rgb(183,185,188)" stroke-width="1" opacity="0.9686274509803922" d="M 873.5 362 L 871.5 365 L 873.5 362 Z " /><path fill="rgb(183,185,188)" stroke="rgb(183,185,188)" stroke-width="1" opacity="0.9686274509803922" d="M 547.5 367 L 554 370.5 L 552.5 371 L 547.5 368 L 547.5 367 Z " /><path fill="rgb(183,185,188)" stroke="rgb(183,185,188)" stroke-width="1" opacity="0.9686274509803922" d="M 558.5 374 L 562 375.5 L 560.5 376 L 558.5 374 Z " /><path fill="rgb(183,185,188)" stroke="rgb(183,185,188)" stroke-width="1" opacity="0.9686274509803922" d="M 758.5 374 L 769 374.5 L 758.5 375 L 758.5 374 Z " /><path fill="rgb(183,185,188)" stroke="rgb(183,185,188)" stroke-width="1" opacity="0.9686274509803922" d="M 570.5 380 L 571.5 382 L 570.5 380 Z " /><path fill="rgb(183,185,188)" stroke="rgb(183,185,188)" stroke-width="1" opacity="0.9686274509803922" d="M 577.5 384 L 581 385.5 L 579.5 386 L 577.5 384 Z " /><path fill="rgb(183,185,188)" stroke="rgb(183,185,188)" stroke-width="1" opacity="0.9686274509803922" d="M 620.5 400 L 623 400.5 L 620.5 401 L 620.5 400 Z " /><path fill="rgb(183,185,188)" stroke="rgb(183,185,188)" stroke-width="1" opacity="0.9686274509803922" d="M 792.5 400 L 795 400.5 L 792.5 401 L 792.5 400 Z " /><path fill="rgb(183,185,188)" stroke="rgb(183,185,188)" stroke-width="1" opacity="0.9686274509803922" d="M 624.5 401 L 627 401.5 L 624.5 402 L 624.5 401 Z " /><path fill="rgb(183,185,188)" stroke="rgb(183,185,188)" stroke-width="1" opacity="0.9686274509803922" d="M 632.5 403 L 635 403.5 L 632.5 404 L 632.5 403 Z " /><path fill="rgb(183,185,188)" stroke="rgb(183,185,188)" stroke-width="1" opacity="0.9686274509803922" d="M 640.5 405 L 644 405.5 L 640.5 406 L 640.5 405 Z " /><path fill="rgb(183,185,188)" stroke="rgb(183,185,188)" stroke-width="1" opacity="0.9686274509803922" d="M 771.5 405 L 774 405.5 L 771.5 406 L 771.5 405 Z " /><path fill="rgb(183,185,188)" stroke="rgb(183,185,188)" stroke-width="1" opacity="0.9686274509803922" d="M 647.5 406 L 650 406.5 L 647.5 407 L 647.5 406 Z " /><path fill="rgb(183,185,188)" stroke="rgb(183,185,188)" stroke-width="1" opacity="0.9686274509803922" d="M 764.5 406 L 768 406.5 L 764.5 407 L 764.5 406 Z " /><path fill="rgb(183,185,188)" stroke="rgb(183,185,188)" stroke-width="1" opacity="0.9686274509803922" d="M 658.5 408 L 662 408.5 L 658.5 409 L 658.5 408 Z " /><path fill="rgb(183,185,188)" stroke="rgb(183,185,188)" stroke-width="1" opacity="0.9686274509803922" d="M 753.5 408 L 757 408.5 L 753.5 409 L 753.5 408 Z " /><path fill="rgb(32,96,170)" stroke="rgb(32,96,170)" stroke-width="1" opacity="0.996078431372549" d="M 668 206 L 828.5 206 L 851.5 212 L 867 220 Q 865.9 222.7 868.5 222 L 873 225 L 873 227 Q 875.7 225.9 875 228.5 L 882 236.5 L 888 248.5 L 888 251.5 L 890 253.5 Q 888.5 259 891 260.5 L 891 285.5 L 885 305.5 L 882 311.5 L 872 324 L 860 331 Q 861.3 334 857.5 333 L 849.5 338 L 827 344.5 L 848.5 353 L 859 361.5 L 882 399.5 L 883 404 Q 886 402.8 885 406.5 L 893 418.5 L 893 421 Q 896 419.8 895 423.5 L 915 456.5 L 828 457 L 789 381.5 L 775.5 363 L 773 361.5 Q 773.9 358.5 769.5 360 L 764.5 358 L 744 358 L 744 375.5 L 745 376.5 L 745 409.5 L 744 410.5 L 744 457 L 668.5 457 L 668 456.5 L 668 206 Z M 745 259 L 745 303 L 792 303 L 804 299 L 810 293 L 812 289 Q 810 282 813 281 Q 810 279 812 273 L 809 268 L 804 262 L 792 259 L 745 259 Z " /><path fill="rgb(9,3,5)" stroke="rgb(9,3,5)" stroke-width="1" opacity="0.7019607843137254" d="M 352.5 200 L 358 200.5 L 352.5 201 L 352.5 200 Z " /><path fill="rgb(9,3,5)" stroke="rgb(9,3,5)" stroke-width="1" opacity="0.7019607843137254" d="M 378.5 200 L 384 200.5 L 378.5 201 L 378.5 200 Z " /><path fill="rgb(9,3,5)" stroke="rgb(9,3,5)" stroke-width="1" opacity="0.7019607843137254" d="M 344.5 201 L 348 201.5 L 344.5 202 L 344.5 201 Z " /><path fill="rgb(9,3,5)" stroke="rgb(9,3,5)" stroke-width="1" opacity="0.7019607843137254" d="M 388.5 201 L 392 201.5 L 388.5 202 L 388.5 201 Z " /><path fill="rgb(9,3,5)" stroke="rgb(9,3,5)" stroke-width="1" opacity="0.7019607843137254" d="M 56 204 L 126 204.5 L 57 205 L 56.5 461 L 56 204 Z " /><path fill="rgb(9,3,5)" stroke="rgb(9,3,5)" stroke-width="1" opacity="0.7019607843137254" d="M 186.5 204 L 260 204.5 L 186 205 L 185.5 207 L 185 205.5 L 186.5 204 Z " /><path fill="rgb(9,3,5)" stroke="rgb(9,3,5)" stroke-width="1" opacity="0.7019607843137254" d="M 952.5 204 L 1119 204.5 L 952.5 205 L 952.5 204 Z " /><path fill="rgb(9,3,5)" stroke="rgb(9,3,5)" stroke-width="1" opacity="0.7019607843137254" d="M 1206.5 204 L 1276 204.5 L 1206 205 L 1205.5 207 L 1205 205.5 L 1206.5 204 Z " /><path fill="rgb(9,3,5)" stroke="rgb(9,3,5)" stroke-width="1" opacity="0.7019607843137254" d="M 428.5 214 L 429.5 216 L 428.5 214 Z " /><path fill="rgb(9,3,5)" stroke="rgb(9,3,5)" stroke-width="1" opacity="0.7019607843137254" d="M 431.5 216 L 432.5 218 L 431.5 216 Z " /><path fill="rgb(9,3,5)" stroke="rgb(9,3,5)" stroke-width="1" opacity="0.7019607843137254" d="M 434.5 218 L 436.5 221 L 434.5 218 Z " /><path fill="rgb(9,3,5)" stroke="rgb(9,3,5)" stroke-width="1" opacity="0.7019607843137254" d="M 300.5 219 L 298.5 222 L 300.5 219 Z " /><path fill="rgb(9,3,5)" stroke="rgb(9,3,5)" stroke-width="1" opacity="0.7019607843137254" d="M 439.5 222 L 448.5 232 L 439.5 222 Z " /><path fill="rgb(9,3,5)" stroke="rgb(9,3,5)" stroke-width="1" opacity="0.7019607843137254" d="M 295.5 223 L 288.5 231 L 295.5 223 Z " /><path fill="rgb(9,3,5)" stroke="rgb(9,3,5)" stroke-width="1" opacity="0.7019607843137254" d="M 286.5 233 L 284.5 236 L 286.5 233 Z " /><path fill="rgb(9,3,5)" stroke="rgb(9,3,5)" stroke-width="1" opacity="0.7019607843137254" d="M 450.5 234 L 451.5 236 L 450.5 234 Z " /><path fill="rgb(9,3,5)" stroke="rgb(9,3,5)" stroke-width="1" opacity="0.7019607843137254" d="M 453.5 238 L 454.5 240 L 453.5 238 Z " /><path fill="rgb(9,3,5)" stroke="rgb(9,3,5)" stroke-width="1" opacity="0.7019607843137254" d="M 360.5 255 L 364 255.5 L 360.5 256 L 360.5 255 Z " /><path fill="rgb(9,3,5)" stroke="rgb(9,3,5)" stroke-width="1" opacity="0.7019607843137254" d="M 372.5 255 L 376 255.5 L 372.5 256 L 372.5 255 Z " /><path fill="rgb(9,3,5)" stroke="rgb(9,3,5)" stroke-width="1" opacity="0.7019607843137254" d="M 390.5 262 L 393.5 266 L 390.5 262 Z " /><path fill="rgb(9,3,5)" stroke="rgb(9,3,5)" stroke-width="1" opacity="0.7019607843137254" d="M 344.5 263 L 343.5 265 L 344.5 263 Z " /><path fill="rgb(9,3,5)" stroke="rgb(9,3,5)" stroke-width="1" opacity="0.7019607843137254" d="M 341.5 267 L 340.5 269 L 341.5 267 Z " /><path fill="rgb(9,3,5)" stroke="rgb(9,3,5)" stroke-width="1" opacity="0.7019607843137254" d="M 395.5 268 L 396.5 270 L 395.5 268 Z " /><path fill="rgb(9,3,5)" stroke="rgb(9,3,5)" stroke-width="1" opacity="0.7019607843137254" d="M 470.5 278 L 471 280.5 L 470 280.5 L 470.5 278 Z " /><path fill="rgb(9,3,5)" stroke="rgb(9,3,5)" stroke-width="1" opacity="0.7019607843137254" d="M 1240.5 280 L 1242 282.5 L 1240 281.5 L 1240.5 280 Z " /><path fill="rgb(9,3,5)" stroke="rgb(9,3,5)" stroke-width="1" opacity="0.7019607843137254" d="M 471.5 283 L 472 285.5 L 471 285.5 L 471.5 283 Z " /><path fill="rgb(9,3,5)" stroke="rgb(9,3,5)" stroke-width="1" opacity="0.7019607843137254" d="M 263.5 288 L 264 290.5 L 263 290.5 L 263.5 288 Z " /><path fill="rgb(9,3,5)" stroke="rgb(9,3,5)" stroke-width="1" opacity="0.7019607843137254" d="M 332.5 288 L 333 290.5 L 332 290.5 L 332.5 288 Z " /><path fill="rgb(9,3,5)" stroke="rgb(9,3,5)" stroke-width="1" opacity="0.7019607843137254" d="M 403.5 288 L 404 290.5 L 403 290.5 L 403.5 288 Z " /><path fill="rgb(9,3,5)" stroke="rgb(9,3,5)" stroke-width="1" opacity="0.7019607843137254" d="M 472.5 289 L 473 291.5 L 472 291.5 L 472.5 289 Z " /><path fill="rgb(9,3,5)" stroke="rgb(9,3,5)" stroke-width="1" opacity="0.7019607843137254" d="M 331.5 294 L 332 296.5 L 331 296.5 L 331.5 294 Z " /><path fill="rgb(9,3,5)" stroke="rgb(9,3,5)" stroke-width="1" opacity="0.7019607843137254" d="M 404.5 294 L 405 297.5 L 404 297.5 L 404.5 294 Z " /><path fill="rgb(9,3,5)" stroke="rgb(9,3,5)" stroke-width="1" opacity="0.7019607843137254" d="M 262.5 295 L 263 298.5 L 262 298.5 L 262.5 295 Z " /><path fill="rgb(9,3,5)" stroke="rgb(9,3,5)" stroke-width="1" opacity="0.7019607843137254" d="M 473.5 296 L 474 299.5 L 473 299.5 L 473.5 296 Z " /><path fill="rgb(9,3,5)" stroke="rgb(9,3,5)" stroke-width="1" opacity="0.7019607843137254" d="M 330.5 302 L 331 308.5 L 330 308.5 L 330.5 302 Z " /><path fill="rgb(9,3,5)" stroke="rgb(9,3,5)" stroke-width="1" opacity="0.7019607843137254" d="M 1105.5 302 L 1106 356.5 L 1105 356.5 L 1105.5 302 Z " /><path fill="rgb(9,3,5)" stroke="rgb(9,3,5)" stroke-width="1" opacity="0.7019607843137254" d="M 261.5 304 L 262 309.5 L 261 309.5 L 261.5 304 Z " /><path fill="rgb(9,3,5)" stroke="rgb(9,3,5)" stroke-width="1" opacity="0.7019607843137254" d="M 405.5 304 L 406 311.5 L 405 311.5 L 405.5 304 Z " /><path fill="rgb(9,3,5)" stroke="rgb(9,3,5)" stroke-width="1" opacity="0.7019607843137254" d="M 474.5 305 L 475 311.5 L 474 311.5 L 474.5 305 Z " /><path fill="rgb(9,3,5)" stroke="rgb(9,3,5)" stroke-width="1" opacity="0.7019607843137254" d="M 260.5 320 L 261 344.5 L 260 344.5 L 260.5 320 Z " /><path fill="rgb(9,3,5)" stroke="rgb(9,3,5)" stroke-width="1" opacity="0.7019607843137254" d="M 329.5 325 L 330 340.5 L 329 340.5 L 329.5 325 Z " /><path fill="rgb(9,3,5)" stroke="rgb(9,3,5)" stroke-width="1" opacity="0.7019607843137254" d="M 475.5 325 L 476 339.5 L 475 339.5 L 475.5 325 Z " /><path fill="rgb(9,3,5)" stroke="rgb(9,3,5)" stroke-width="1" opacity="0.7019607843137254" d="M 474.5 353 L 475 359.5 L 474 359.5 L 474.5 353 Z " /><path fill="rgb(9,3,5)" stroke="rgb(9,3,5)" stroke-width="1" opacity="0.7019607843137254" d="M 405.5 354 L 406 361.5 L 405 361.5 L 405.5 354 Z " /><path fill="rgb(9,3,5)" stroke="rgb(9,3,5)" stroke-width="1" opacity="0.7019607843137254" d="M 261.5 355 L 262 361.5 L 261 361.5 L 261.5 355 Z " /><path fill="rgb(9,3,5)" stroke="rgb(9,3,5)" stroke-width="1" opacity="0.7019607843137254" d="M 330.5 356 L 331 362.5 L 330 362.5 L 330.5 356 Z " /><path fill="rgb(9,3,5)" stroke="rgb(9,3,5)" stroke-width="1" opacity="0.7019607843137254" d="M 473.5 365 L 474 369.5 L 473 369.5 L 473.5 365 Z " /><path fill="rgb(9,3,5)" stroke="rgb(9,3,5)" stroke-width="1" opacity="0.7019607843137254" d="M 262.5 367 L 263 370.5 L 262 370.5 L 262.5 367 Z " /><path fill="rgb(9,3,5)" stroke="rgb(9,3,5)" stroke-width="1" opacity="0.7019607843137254" d="M 404.5 367 L 405 370.5 L 404 370.5 L 404.5 367 Z " /><path fill="rgb(9,3,5)" stroke="rgb(9,3,5)" stroke-width="1" opacity="0.7019607843137254" d="M 331.5 368 L 332 371.5 L 331 371.5 L 331.5 368 Z " /><path fill="rgb(9,3,5)" stroke="rgb(9,3,5)" stroke-width="1" opacity="0.7019607843137254" d="M 472.5 373 L 473 376.5 L 472 376.5 L 472.5 373 Z " /><path fill="rgb(9,3,5)" stroke="rgb(9,3,5)" stroke-width="1" opacity="0.7019607843137254" d="M 263.5 374 L 264 376.5 L 263 376.5 L 263.5 374 Z " /><path fill="rgb(9,3,5)" stroke="rgb(9,3,5)" stroke-width="1" opacity="0.7019607843137254" d="M 403.5 374 L 404 376.5 L 403 376.5 L 403.5 374 Z " /><path fill="rgb(9,3,5)" stroke="rgb(9,3,5)" stroke-width="1" opacity="0.7019607843137254" d="M 332.5 375 L 333 377.5 L 332 377.5 L 332.5 375 Z " /><path fill="rgb(9,3,5)" stroke="rgb(9,3,5)" stroke-width="1" opacity="0.7019607843137254" d="M 264.5 380 L 265 382.5 L 264 382.5 L 264.5 380 Z " /><path fill="rgb(9,3,5)" stroke="rgb(9,3,5)" stroke-width="1" opacity="0.7019607843137254" d="M 227.5 382 L 228.5 384 L 227.5 382 Z " /><path fill="rgb(9,3,5)" stroke="rgb(9,3,5)" stroke-width="1" opacity="0.7019607843137254" d="M 397.5 394 L 396.5 396 L 397.5 394 Z " /><path fill="rgb(9,3,5)" stroke="rgb(9,3,5)" stroke-width="1" opacity="0.7019607843137254" d="M 340.5 397 L 343.5 401 L 340.5 397 Z " /><path fill="rgb(9,3,5)" stroke="rgb(9,3,5)" stroke-width="1" opacity="0.7019607843137254" d="M 395.5 397 L 394.5 399 L 395.5 397 Z " /><path fill="rgb(9,3,5)" stroke="rgb(9,3,5)" stroke-width="1" opacity="0.7019607843137254" d="M 346.5 403 L 348.5 406 L 346.5 403 Z " /><path fill="rgb(9,3,5)" stroke="rgb(9,3,5)" stroke-width="1" opacity="0.7019607843137254" d="M 388.5 404 L 387.5 406 L 388.5 404 Z " /><path fill="rgb(9,3,5)" stroke="rgb(9,3,5)" stroke-width="1" opacity="0.7019607843137254" d="M 1021.5 406 L 1121 406 L 1121 460.5 L 1120 460.5 L 1120 407 L 1021.5 407 L 1021.5 406 Z " /><path fill="rgb(9,3,5)" stroke="rgb(9,3,5)" stroke-width="1" opacity="0.7019607843137254" d="M 362.5 410 L 374 410.5 L 362.5 411 L 362.5 410 Z " /><path fill="rgb(9,3,5)" stroke="rgb(9,3,5)" stroke-width="1" opacity="0.7019607843137254" d="M 248.5 422 L 249.5 424 L 248.5 422 Z " /><path fill="rgb(9,3,5)" stroke="rgb(9,3,5)" stroke-width="1" opacity="0.7019607843137254" d="M 283.5 428 L 284.5 430 L 283.5 428 Z " /><path fill="rgb(9,3,5)" stroke="rgb(9,3,5)" stroke-width="1" opacity="0.7019607843137254" d="M 452.5 428 L 451.5 430 L 452.5 428 Z " /><path fill="rgb(9,3,5)" stroke="rgb(9,3,5)" stroke-width="1" opacity="0.7019607843137254" d="M 286.5 432 L 297.5 444 L 286.5 432 Z " /><path fill="rgb(9,3,5)" stroke="rgb(9,3,5)" stroke-width="1" opacity="0.7019607843137254" d="M 449.5 432 L 446.5 436 L 449.5 432 Z " /><path fill="rgb(9,3,5)" stroke="rgb(9,3,5)" stroke-width="1" opacity="0.7019607843137254" d="M 258.5 441 L 259.5 443 L 258.5 441 Z " /><path fill="rgb(9,3,5)" stroke="rgb(9,3,5)" stroke-width="1" opacity="0.7019607843137254" d="M 440.5 441 L 437.5 445 L 440.5 441 Z " /><path fill="rgb(9,3,5)" stroke="rgb(9,3,5)" stroke-width="1" opacity="0.7019607843137254" d="M 300.5 445 L 302.5 448 L 300.5 445 Z " /><path fill="rgb(9,3,5)" stroke="rgb(9,3,5)" stroke-width="1" opacity="0.7019607843137254" d="M 434.5 446 L 433.5 448 L 434.5 446 Z " /><path fill="rgb(9,3,5)" stroke="rgb(9,3,5)" stroke-width="1" opacity="0.7019607843137254" d="M 304.5 448 L 305.5 450 L 304.5 448 Z " /><path fill="rgb(9,3,5)" stroke="rgb(9,3,5)" stroke-width="1" opacity="0.7019607843137254" d="M 431.5 448 L 430.5 450 L 431.5 448 Z " /><path fill="rgb(9,3,5)" stroke="rgb(9,3,5)" stroke-width="1" opacity="0.7019607843137254" d="M 428.5 450 L 427.5 452 L 428.5 450 Z " /><path fill="rgb(9,3,5)" stroke="rgb(9,3,5)" stroke-width="1" opacity="0.7019607843137254" d="M 342.5 463 L 345 463.5 L 342.5 464 L 342.5 463 Z " /><path fill="rgb(9,3,5)" stroke="rgb(9,3,5)" stroke-width="1" opacity="0.7019607843137254" d="M 391.5 463 L 394 463.5 L 391.5 464 L 391.5 463 Z " /><path fill="rgb(9,3,5)" stroke="rgb(9,3,5)" stroke-width="1" opacity="0.7019607843137254" d="M 348.5 464 L 353 464.5 L 348.5 465 L 348.5 464 Z " /><path fill="rgb(9,3,5)" stroke="rgb(9,3,5)" stroke-width="1" opacity="0.7019607843137254" d="M 383.5 464 L 387 464.5 L 383.5 465 L 383.5 464 Z " /><path fill="rgb(9,3,5)" stroke="rgb(9,3,5)" stroke-width="1" opacity="0.7019607843137254" d="M 360.5 465 L 376 465.5 L 360.5 466 L 360.5 465 Z " /><path fill="rgb(9,4,5)" stroke="rgb(9,4,5)" stroke-width="1" opacity="1" d="M 358.5 200 Q 423.1 197.9 450 233.5 Q 464 251 470 276.5 L 473 292.5 L 473 299.5 L 474 300.5 L 474 311.5 L 475 312.5 L 475 352.5 L 474 353.5 L 474 364.5 L 473 365.5 L 472 379.5 L 465 405.5 Q 456.8 426.8 441.5 441 Q 413.1 468.6 353.5 465 L 331.5 461 L 309.5 452 Q 295.2 443.3 285 430.5 L 274 412.5 L 266 389.5 L 262 366.5 L 262 355.5 L 261 354.5 L 261 310.5 L 262 309.5 L 262 299.5 L 263 298.5 L 265 280.5 L 272 257.5 Q 280.8 235.8 297.5 222 Q 307.4 213.4 320.5 208 L 336.5 203 L 347.5 202 L 348.5 201 L 357.5 201 L 358.5 200 Z M 361 255 Q 351 257 345 263 Q 335 273 332 289 L 331 302 L 330 303 L 330 325 L 329 326 L 331 372 L 335 388 L 340 398 Q 347 409 363 411 Q 379 412 388 406 Q 396 400 400 391 L 403 382 L 405 371 L 405 363 L 406 362 L 406 305 L 405 304 L 405 295 L 401 278 L 394 266 Q 389 259 380 256 Q 372 254 361 255 Z " /><path fill="rgb(9,4,5)" stroke="rgb(9,4,5)" stroke-width="1" opacity="1" d="M 57 205 L 126 205 L 126 301.5 L 126.5 302 L 144 302 L 186 205 L 259 205.5 L 200 327.5 L 200 330.5 L 268 461 L 194.5 461 L 194 458.5 L 144 357 L 126.5 357 L 126 357.5 L 126 461 L 57 461 L 57 205 Z " /><path fill="rgb(9,4,5)" stroke="rgb(9,4,5)" stroke-width="1" opacity="1" d="M 952 205 L 1118.5 205 L 1119 205.5 L 1119 259 L 1021 259 L 1021 302 L 1105 302 L 1105 357 L 1021 357 L 1021 407 L 1120 407 L 1120 461 L 952 461 L 952 205 Z " /><path fill="rgb(9,4,5)" stroke="rgb(9,4,5)" stroke-width="1" opacity="1" d="M 1206 205 L 1275.5 205 L 1276 207.5 L 1356 461 L 1287.5 461 L 1287 458.5 L 1277 420 L 1204.5 420 L 1204 423.5 L 1195 459.5 L 1193.5 461 L 1125 460.5 L 1206 205 Z M 1241 280 L 1218 366 L 1219 368 L 1263 368 L 1248 305 L 1246 301 L 1242 282 L 1241 280 Z " /><path fill="rgb(159,160,167)" stroke="rgb(159,160,167)" stroke-width="1" opacity="0.9607843137254902" d="M 836.5 140 L 842 142 Q 840.8 145 844.5 144 L 859.5 153 L 862 153 Q 860.9 155.7 863.5 155 L 880 166 Q 878.9 168.7 881.5 168 L 888 173 Q 886.9 175.7 889.5 175 L 891 178 L 893 178 Q 891.9 180.7 894.5 180 L 913 202.5 L 926 227.5 L 931 247.5 L 931 276.5 L 926 296.5 L 918 314.5 L 896 344 L 891 347.5 Q 891.8 349.8 889.5 349 Q 878.5 361 863.5 369 L 857.5 360 L 850 354.5 Q 871.5 346 885 329.5 L 888 324 L 891 322.5 L 899 307.5 L 899 304.5 L 902 298.5 L 902 293.5 L 904 290.5 L 905 263.5 L 904 262.5 L 904 254.5 Q 900.7 251.3 901 244.5 L 899 242.5 L 896 232.5 L 887 220.5 L 886 217 L 874 208 L 872.5 205 L 868 203 Q 869.1 200.3 866.5 201 L 859.5 196 L 838.5 186 L 806.5 177 L 788 174.5 L 804 165 Q 802.9 162.3 805.5 163 L 814 158 Q 812.9 155.3 815.5 156 L 837 141.5 L 836.5 140 Z " /><path fill="rgb(159,160,167)" stroke="rgb(159,160,167)" stroke-width="1" opacity="0.9607843137254902" d="M 668.5 205 L 821 205.5 L 668.5 206 L 668.5 205 Z " /><path fill="rgb(159,160,167)" stroke="rgb(159,160,167)" stroke-width="1" opacity="0.9607843137254902" d="M 829.5 206 L 832 206.5 L 829.5 207 L 829.5 206 Z " /><path fill="rgb(159,160,167)" stroke="rgb(159,160,167)" stroke-width="1" opacity="0.9607843137254902" d="M 869.5 222 L 871.5 225 L 869.5 222 Z " /><path fill="rgb(159,160,167)" stroke="rgb(159,160,167)" stroke-width="1" opacity="0.9607843137254902" d="M 875.5 228 L 877.5 231 L 875.5 228 Z " /><path fill="rgb(159,160,167)" stroke="rgb(159,160,167)" stroke-width="1" opacity="0.9607843137254902" d="M 884.5 241 L 886 243.5 L 885 243.5 L 884.5 241 Z " /><path fill="rgb(159,160,167)" stroke="rgb(159,160,167)" stroke-width="1" opacity="0.9607843137254902" d="M 890.5 257 L 891 259.5 L 890 259.5 L 890.5 257 Z " /><path fill="rgb(159,160,167)" stroke="rgb(159,160,167)" stroke-width="1" opacity="0.9607843137254902" d="M 745.5 259 L 792 259.5 L 745.5 260 L 745.5 259 Z " /><path fill="rgb(159,160,167)" stroke="rgb(159,160,167)" stroke-width="1" opacity="0.9607843137254902" d="M 802.5 262 L 805 263.5 L 803.5 263 L 802.5 262 Z " /><path fill="rgb(159,160,167)" stroke="rgb(159,160,167)" stroke-width="1" opacity="0.9607843137254902" d="M 745.5 265 L 746 282.5 L 745 282.5 L 745.5 265 Z " /><path fill="rgb(159,160,167)" stroke="rgb(159,160,167)" stroke-width="1" opacity="0.9607843137254902" d="M 891.5 265 L 892 278.5 L 891 278.5 L 891.5 265 Z " /><path fill="rgb(159,160,167)" stroke="rgb(159,160,167)" stroke-width="1" opacity="0.9607843137254902" d="M 811.5 272 L 812 274.5 L 811 274.5 L 811.5 272 Z " /><path fill="rgb(159,160,167)" stroke="rgb(159,160,167)" stroke-width="1" opacity="0.9607843137254902" d="M 890.5 286 L 891 288.5 L 890 288.5 L 890.5 286 Z " /><path fill="rgb(159,160,167)" stroke="rgb(159,160,167)" stroke-width="1" opacity="0.9607843137254902" d="M 745.5 302 L 792 302.5 L 745.5 303 L 745.5 302 Z " /><path fill="rgb(159,160,167)" stroke="rgb(159,160,167)" stroke-width="1" opacity="0.9607843137254902" d="M 580.5 307 L 582.5 310 L 580.5 307 Z " /><path fill="rgb(159,160,167)" stroke="rgb(159,160,167)" stroke-width="1" opacity="0.9607843137254902" d="M 581.5 311 Q 584.8 309.9 584 312.5 L 602.5 332 L 605.5 334 L 618.5 344 L 636.5 354 L 641.5 355 L 647.5 359 L 668 365 L 668 409.5 L 666.5 410 L 661.5 408 L 654.5 408 L 649.5 406 L 638.5 405 L 599.5 394 L 597.5 392 L 594.5 392 L 592.5 390 L 582.5 387 L 554 372 Q 555.1 369.3 552.5 370 L 534 358 Q 535.1 355.3 532.5 356 L 528 353 Q 529 350 526 351 L 526 348 L 552 332 Q 550.9 329.3 553.5 330 L 566 323 Q 564.9 320.3 567.5 321 L 581.5 311 Z " /><path fill="rgb(159,160,167)" stroke="rgb(159,160,167)" stroke-width="1" opacity="0.9607843137254902" d="M 877.5 317 L 872.5 323 L 877.5 317 Z " /><path fill="rgb(159,160,167)" stroke="rgb(159,160,167)" stroke-width="1" opacity="0.9607843137254902" d="M 865.5 328 L 864.5 330 L 865.5 328 Z " /><path fill="rgb(159,160,167)" stroke="rgb(159,160,167)" stroke-width="1" opacity="0.9607843137254902" d="M 855.5 334 L 854.5 336 L 855.5 334 Z " /><path fill="rgb(159,160,167)" stroke="rgb(159,160,167)" stroke-width="1" opacity="0.9607843137254902" d="M 829.5 343 L 832 343.5 L 829.5 344 L 829.5 343 Z " /><path fill="rgb(159,160,167)" stroke="rgb(159,160,167)" stroke-width="1" opacity="0.9607843137254902" d="M 523.5 346 L 524.5 348 L 523.5 346 Z " /><path fill="rgb(159,160,167)" stroke="rgb(159,160,167)" stroke-width="1" opacity="0.9607843137254902" d="M 744 358 L 765 358.5 L 745 359 L 745 375 L 768.5 375 L 782 372.5 L 780 369.5 L 782 370.5 L 798 398.5 L 776.5 405 L 764.5 406 L 760.5 408 L 753.5 408 L 745 410 L 745 456.5 L 743.5 458 L 668 457.5 L 744 457 L 745 376.5 L 744 375.5 L 744 358 Z " /><path fill="rgb(159,160,167)" stroke="rgb(159,160,167)" stroke-width="1" opacity="0.9607843137254902" d="M 775.5 363 L 776.5 365 L 775.5 363 Z " /><path fill="rgb(159,160,167)" stroke="rgb(159,160,167)" stroke-width="1" opacity="0.9607843137254902" d="M 869.5 379 L 870.5 381 L 869.5 379 Z " /><path fill="rgb(159,160,167)" stroke="rgb(159,160,167)" stroke-width="1" opacity="0.9607843137254902" d="M 873.5 386 L 874.5 388 L 873.5 386 Z " /><path fill="rgb(159,160,167)" stroke="rgb(159,160,167)" stroke-width="1" opacity="0.9607843137254902" d="M 875.5 389 L 876.5 391 L 875.5 389 Z " /><path fill="rgb(159,160,167)" stroke="rgb(159,160,167)" stroke-width="1" opacity="0.9607843137254902" d="M 885.5 406 L 887 408.5 L 886 408.5 L 885.5 406 Z " /><path fill="rgb(159,160,167)" stroke="rgb(159,160,167)" stroke-width="1" opacity="0.9607843137254902" d="M 895.5 422 L 899 428.5 L 898 428.5 L 895 423.5 L 895.5 422 Z " /><path fill="rgb(159,160,167)" stroke="rgb(159,160,167)" stroke-width="1" opacity="0.9607843137254902" d="M 903.5 436 L 904.5 438 L 903.5 436 Z " /><path fill="rgb(159,160,167)" stroke="rgb(159,160,167)" stroke-width="1" opacity="0.9607843137254902" d="M 907.5 443 L 908.5 445 L 907.5 443 Z " /><path fill="rgb(159,160,167)" stroke="rgb(159,160,167)" stroke-width="1" opacity="0.9607843137254902" d="M 828.5 457 L 915 457.5 L 828.5 458 L 828.5 457 Z " /></svg>